# xmcd
#
# Track frame offsets: 
#        150
#        33254
#        71553
#        96599
#        159676
#        193956
#
# Disc length: 3233 seconds
#
# Revision: 1
# Processed by: cddbd v1.4PL0 Copyright (c) Steve Scherf et al.
# Submitted via: ExactAudioCopy v0.90b4
#
DISCID=540c9f06
DTITLE=Herbie Hancock - Empyrean Isles
DYEAR=1964
DGENRE=Jazz
TTITLE0=One Finger Snap
TTITLE1=Oliloqui Valley
TTITLE2=Cantaloupe Island
TTITLE3=The Egg
TTITLE4=One Finger Snap (alternate take)
TTITLE5=Oliloqui Valley (alternate take)
EXTD=YEAR: 1964
EXTT0=
EXTT1=
EXTT2=
EXTT3=
EXTT4=
EXTT5=
PLAYORDER=
